<svg id="Layer_1" data-name="Layer 1" xmlns="http://www.w3.org/2000/svg" xmlns:xlink="http://www.w3.org/1999/xlink" viewBox="0 0 232.91 24.96"><defs><style>.cls-1,.cls-3{fill:#fff;}.cls-1{fill-rule:evenodd;}.cls-2{fill:#00aeef;}.cls-4{mask:url(#mask);}.cls-5{fill:#231f20;}</style><mask id="mask" x="28.74" y="0" width="20.67" height="24.96" maskUnits="userSpaceOnUse"><g transform="translate(-1.55 -0.02)"><g id="mask-2"><polygon id="path-1" class="cls-1" points="30.29 24.98 50.95 24.98 50.95 0.02 30.29 0.02 30.29 24.98"/></g></g></mask></defs><title>Corrected_Blue_Connect_Lockup_Dark</title><polygon id="Fill-1" class="cls-2" points="7.02 0.27 7.02 7.05 0 7.05 0 17.91 7.02 17.91 7.02 24.69 18.2 24.69 18.2 17.91 25.22 17.91 25.22 7.05 18.2 7.05 18.2 0.27 7.02 0.27"/><path id="Fill-2" class="cls-3" d="M7.69,10.16l4.65.43A1,1,0,0,1,13.08,12L9.89,17.8h0a6.62,6.62,0,0,1-2.66-5.28,6.39,6.39,0,0,1,.45-2.36Z" transform="translate(-1.55 -0.02)"/><path id="Fill-4" class="cls-2" d="M8.38,11.15l3.52.31c.25,0,.27.12.22.27L9.65,16.28a5.62,5.62,0,0,1-1.27-5.13" transform="translate(-1.55 -0.02)"/><path id="Fill-6" class="cls-3" d="M20.67,10.16,16,10.59A1,1,0,0,0,15.27,12l3.19,5.78h0a6.58,6.58,0,0,0,2.21-7.64Z" transform="translate(-1.55 -0.02)"/><path id="Fill-8" class="cls-3" d="M14.18,5.82A7,7,0,0,0,7.89,9.68h4.94c.7,0,1-.41,1-.73s0-.51-.38-.92a.86.86,0,1,1,1.39,0c-.33.41-.39.53-.37.92s.32.72,1,.73h4.93a6.94,6.94,0,0,0-6.28-3.86" transform="translate(-1.55 -0.02)"/><path id="Fill-10" class="cls-2" d="M20,11.15l-3.52.31c-.26,0-.28.12-.22.27l2.47,4.55A5.62,5.62,0,0,0,20,11.15" transform="translate(-1.55 -0.02)"/><path id="Fill-12" class="cls-2" d="M15.84,7a1.46,1.46,0,0,1-.27,1.66.08.08,0,0,0,0,.14h3.13A6,6,0,0,0,15.84,7" transform="translate(-1.55 -0.02)"/><path id="Fill-14" class="cls-3" d="M14.18,19.23A7,7,0,0,0,18,18.12h0l-3.38-4.89a.51.51,0,0,0-.87,0l-3.37,4.89h0a7,7,0,0,0,3.81,1.11" transform="translate(-1.55 -0.02)"/><g id="Group-18"><g id="Fill-16-Clipped"><g class="cls-4"><path id="Fill-16" class="cls-2" d="M40.62,25a19.35,19.35,0,0,0,9.3-11.24C51.49,9,51.23,3.48,49.41,0a19.35,19.35,0,0,1-8.79,2,19.13,19.13,0,0,1-8.79-2C30,3.48,29.75,9,31.32,13.74A19.38,19.38,0,0,0,40.62,25" transform="translate(-1.55 -0.02)"/></g></g></g><path id="Fill-19" class="cls-3" d="M40.62,22.88a17.27,17.27,0,0,0,7.47-9.68c1.21-3.43,1.51-7.45.18-10.58a23.68,23.68,0,0,1-4.25,1,23.18,23.18,0,0,1-3.39.26h0a23.1,23.1,0,0,1-3.4-.26,23.88,23.88,0,0,1-4.25-1c-1.32,3.13-1,7.15.18,10.58a17.29,17.29,0,0,0,7.48,9.68Z" transform="translate(-1.55 -0.02)"/><path id="Fill-21" class="cls-2" d="M40.62,21.93a17.19,17.19,0,0,0,7-10.27,13.92,13.92,0,0,0,0-7.84,26.55,26.55,0,0,1-3.5.72,25.55,25.55,0,0,1-3.45.27h0a25.57,25.57,0,0,1-3.46-.27,26.88,26.88,0,0,1-3.5-.72,13.92,13.92,0,0,0,0,7.84,17.23,17.23,0,0,0,7,10.27Z" transform="translate(-1.55 -0.02)"/><path id="Fill-23" class="cls-3" d="M37.87,6.55A1.81,1.81,0,0,0,37.05,9a2.85,2.85,0,0,0,1.87,1.49,5.22,5.22,0,0,0,1.24.17,7.21,7.21,0,0,1,1.48.16.4.4,0,0,1,.28.19.39.39,0,0,1-.25.57c0,.42,0,1.27,0,1.27s2.11-.2,1.76-2a1.68,1.68,0,0,0-.86-1.09c-1.06-.53-2.22-.3-3.31-.64-.37-.12-.88-.29-1-.69,0-.16,0-.48.17-.53s.58.14,1,.23a1.49,1.49,0,0,0,.7,0c.09,0,.22,0,.23-.1s-.11-.09-.16-.11-.25-.09-.38-.14a4.82,4.82,0,0,1-.66-.3,3.23,3.23,0,0,1,.76,0,4.69,4.69,0,0,0,.84,0s.1,0,.07-.1-.16-.13-.23-.22A1.23,1.23,0,0,0,40,6.53a2.7,2.7,0,0,0-2.16,0" transform="translate(-1.55 -0.02)"/><path id="Fill-25" class="cls-3" d="M41.4,13.12V11a6,6,0,0,0-.68-.09c-.52,0-.76,0-.76,0v.18s-.25.1-.29.17a.22.22,0,0,0,0,.19A7.71,7.71,0,0,1,40.2,13c.38.06.73,0,1.2.1" transform="translate(-1.55 -0.02)"/><path id="Fill-27" class="cls-3" d="M38.74,12.8a1.3,1.3,0,0,0,1.11,1.44,14.44,14.44,0,0,0,1.49.2,1.32,1.32,0,0,1,.31.05.24.24,0,0,1,.16.15.2.2,0,0,1,0,.2.52.52,0,0,1-.21.11l0,1a1.88,1.88,0,0,0,.76-.22,1.16,1.16,0,0,0,.6-.73,1.2,1.2,0,0,0-.23-1,1.64,1.64,0,0,0-.77-.48A10.32,10.32,0,0,0,40,13.23a.22.22,0,0,1-.19-.17.23.23,0,0,1,.13-.23s-.07-.24-.15-.48-.18-.42-.25-.55a1.24,1.24,0,0,0-.77,1" transform="translate(-1.55 -0.02)"/><path id="Fill-29" class="cls-3" d="M41.34,14.67v1.82l-.47-.21-.47-.18V14.58c.42.05.61.05,1,.09" transform="translate(-1.55 -0.02)"/><path id="Fill-31" class="cls-3" d="M39.24,15.68a1.06,1.06,0,0,0,.58,1.4,8.18,8.18,0,0,0,.91.35c.28.11.78.41.81.55s-.08.18-.08.18v.71a1.47,1.47,0,0,0,.53-.25.9.9,0,0,0,.37-.74c0-.39-.19-.69-.76-1a15.25,15.25,0,0,0-1.4-.63A.19.19,0,0,1,40.1,16a.18.18,0,0,1,.07-.1V15.1a1.89,1.89,0,0,0-.47.15.92.92,0,0,0-.45.43" transform="translate(-1.55 -0.02)"/><path id="Fill-33" class="cls-3" d="M41.27,18.09c0-.06,0-.06-.05-.1a1.13,1.13,0,0,0-.35-.24,2.93,2.93,0,0,0-.42-.18s0,1.86.06,2.82c0,.22.13.28.35.29s.34-.15.34-.24c0-.31,0-1.65.07-2.35" transform="translate(-1.55 -0.02)"/><path id="Fill-35" class="cls-3" d="M41.47,6.12c.1.07.1.08.13.21.06.3,0,.76,0,1s.1.06.16,0A13.71,13.71,0,0,1,43,6.55c.2-.08.77.19.64.6-.07.19-.15.22-.28.34s-.6.5-.91.82a5.42,5.42,0,0,0-.63.64,2.35,2.35,0,0,1-.14.19C41,9,40.43,9,40,9V8.27s.47-.07.56-.3a.15.15,0,0,0-.07-.14,1.77,1.77,0,0,0-.27-.14A4.26,4.26,0,0,1,41.43,8a.21.21,0,0,0,0-.2c-.06-.07-.09-.09-.26-.13s-1-.16-1-.16a4.64,4.64,0,0,0,.65,0c.14,0,.26,0,.29-.1s0-.18-.13-.28l-.2-.21a1.69,1.69,0,0,0-.31-.37A1.86,1.86,0,0,0,40,6.31a1.3,1.3,0,0,1,0-.51c.06-.1.2-.17.28-.13a3.44,3.44,0,0,0,1.14.45" transform="translate(-1.55 -0.02)"/><path id="Fill-37" class="cls-2" d="M40,6.82a.55.55,0,0,1-.25.13c-.19,0-.16-.13-.3-.22s-.16,0-.23-.12a1.31,1.31,0,0,1,.87.19.12.12,0,0,0-.09,0" transform="translate(-1.55 -0.02)"/><path id="Fill-39" class="cls-2" d="M14.08,14.34a.11.11,0,0,1,.19,0l2.34,3.46a6.27,6.27,0,0,1-4.86,0l2.33-3.46a.11.11,0,0,1,.19,0" transform="translate(-1.55 -0.02)"/><path id="Fill-41" class="cls-3" d="M40,18.78a1.21,1.21,0,0,0-.35.74.94.94,0,0,0,.14.61c.08.15.25.14.3,0s0-.22,0-.46a.46.46,0,0,1,.18-.29l0-.83a1.24,1.24,0,0,0-.28.23" transform="translate(-1.55 -0.02)"/><path id="Fill-43" class="cls-2" d="M12.52,7a1.46,1.46,0,0,0,.26,1.66.08.08,0,0,1,0,.14H9.64A6,6,0,0,1,12.52,7" transform="translate(-1.55 -0.02)"/><path id="Fill-45" class="cls-2" d="M46,23.1v.44h.21c.24,0,.35-.05.35-.21s-.11-.23-.35-.23Zm.83.2a.36.36,0,0,1-.32.36l.31.61H46.5l-.28-.57H46v.57h-.26V22.94h.51c.39,0,.58.12.58.36Zm.14-.39a1,1,0,0,0-.75-.3,1,1,0,0,0-.73.29,1,1,0,0,0-.32.73,1,1,0,0,0,.31.71,1.07,1.07,0,0,0,1.49,0,.92.92,0,0,0,.3-.7,1,1,0,0,0-.3-.73Zm.12-.11a1.18,1.18,0,0,1,.35.83,1.1,1.1,0,0,1-.36.82,1.23,1.23,0,0,1-.86.35,1.19,1.19,0,0,1-.85-.35,1.15,1.15,0,0,1-.36-.82,1.2,1.2,0,0,1,.37-.84,1.17,1.17,0,0,1,.84-.33,1.27,1.27,0,0,1,.87.34Z" transform="translate(-1.55 -0.02)"/><path id="Fill-47" class="cls-2" d="M21.66,23.1v.44h.21c.24,0,.35-.05.35-.21s-.11-.23-.35-.23Zm.83.2a.36.36,0,0,1-.32.36l.31.61h-.29l-.28-.57h-.25v.57H21.4V22.94h.51c.39,0,.58.12.58.36Zm.14-.39a1,1,0,0,0-.75-.3,1,1,0,0,0-.73.29,1,1,0,0,0-.32.73,1,1,0,0,0,.31.71,1.07,1.07,0,0,0,1.49,0,1,1,0,0,0,.3-.7,1,1,0,0,0-.3-.73Zm.12-.11a1.18,1.18,0,0,1,.35.83,1.1,1.1,0,0,1-.36.82,1.23,1.23,0,0,1-.86.35,1.19,1.19,0,0,1-.85-.35,1.15,1.15,0,0,1-.36-.82,1.19,1.19,0,0,1,1.21-1.17,1.27,1.27,0,0,1,.87.34Z" transform="translate(-1.55 -0.02)"/><polygon id="Fill-49" class="cls-5" points="67.2 20.08 59.52 9.22 59.52 20.08 56.61 20.08 56.61 4.3 59.57 4.3 66.9 14.63 66.9 4.3 69.8 4.3 69.8 20.08 67.2 20.08"/><path id="Fill-51" class="cls-5" d="M73.57,12.23c0-4.89,3.1-8.18,7.71-8.18a8.71,8.71,0,0,1,4.56,1.14l-.45,2.86a6.66,6.66,0,0,0-4-1.4c-2.88,0-4.66,2.13-4.66,5.56s1.89,5.53,4.78,5.53a7.67,7.67,0,0,0,4.14-1.32L86.1,19a9.17,9.17,0,0,1-4.8,1.35C76.55,20.37,73.57,17.13,73.57,12.23Z" transform="translate(-1.55 -0.02)"/><rect id="Rectangle" class="cls-5" x="91" y="1.89" width="1" height="21"/><path class="cls-2" d="M99.11,3.53h9.58a7,7,0,0,1,3,.51,3.33,3.33,0,0,1,1.88,3.09,3.55,3.55,0,0,1-1,2.57,5.68,5.68,0,0,1-3.73,1.47,6.4,6.4,0,0,1,4.57,1.65,4.21,4.21,0,0,1,1.28,3.11,4.43,4.43,0,0,1-1.28,3.2,6.08,6.08,0,0,1-4.62,1.47H99.11V20h2.35l.05-2.39V6.17l-.05-2H99.11Zm6.19.73,0,1.67,0,4.93h1.6a3,3,0,0,0,2.25-.78,3.86,3.86,0,0,0,.63-2.53c0-2.74-.85-3.29-2.71-3.29Zm0,7.3V18l0,1.91h1.84a3.26,3.26,0,0,0,2.51-.87,4.84,4.84,0,0,0,1-3.36c0-1.86-.42-2.85-1.17-3.43a4.89,4.89,0,0,0-3-.68Z" transform="translate(-1.55 -0.02)"/><path class="cls-2" d="M117.7,3.53c1.14,0,1.48,0,2.54-.09l0,2.68V18l0,1.93h1.67v.63h-7.06V20h1.81l0-1.93V6.12l0-2h-1.81V3.53Z" transform="translate(-1.55 -0.02)"/><path class="cls-2" d="M123.87,8.9c1.26,0,1.64,0,2.83-.1l0,2.25v5.42a6.18,6.18,0,0,0,.24,2.1,1.78,1.78,0,0,0,1.77,1.09,2.54,2.54,0,0,0,1.76-.7,4.28,4.28,0,0,0,.92-3.27v-4.3l-.05-1.86H129.5V8.9h2.08c1.4,0,1.81,0,3.22-.1l-.05,2.25v6.7l.05,2.2h1.74v.65H134.7c-1.55,0-2.1,0-3.26.1l-.08-1.86a5.21,5.21,0,0,1-4.42,2c-1.79,0-2.93-.68-3.39-1.6a4.91,4.91,0,0,1-.33-2.27V11.29l0-1.76H121.4V8.9Z" transform="translate(-1.55 -0.02)"/><path class="cls-2" d="M148.31,17.22a6.07,6.07,0,0,1-11.63-2.59,6.2,6.2,0,0,1,10.4-4.43,5.18,5.18,0,0,1,1.4,3.87h-8.07c0,2.06.07,3.92,1.08,5a3,3,0,0,0,2.16.83,4.32,4.32,0,0,0,3.94-3Zm-3.53-3.87c0-1.89.05-4.11-2.13-4.11s-2.15,2-2.22,4.11Z" transform="translate(-1.55 -0.02)"/><path class="cls-5" d="M232.11,10.51a.42.42,0,0,1-.43-.41h.14c0,.22.16.29.36.29a.31.31,0,0,0,.34-.28c0-.14-.1-.21-.22-.25s-.59-.15-.59-.46a.41.41,0,0,1,.46-.38c.19,0,.43.06.46.34h-.13c0-.18-.17-.22-.32-.22s-.33.07-.33.24c0,.41.81.23.81.72C232.66,10.41,232.39,10.51,232.11,10.51Z" transform="translate(-1.55 -0.02)"/><path class="cls-5" d="M233,10.48V9.05h.2l.54,1.24.55-1.24h.19v1.43h-.13V9.15h0l-.55,1.33h-.12l-.55-1.32h0v1.32Z" transform="translate(-1.55 -0.02)"/><path class="cls-5" d="M162.11,7.84c-.27-2-2-2.79-3.82-2.79-4.16,0-5.42,3.78-5.42,7.1s1.26,7.11,5.42,7.11a3.79,3.79,0,0,0,4-2.92h1.58a5.41,5.41,0,0,1-5.58,4.27c-4.93,0-7-4-7-8.46s2.1-8.45,7-8.45c2.65,0,5.17,1.21,5.4,4.14Z" transform="translate(-1.55 -0.02)"/><path class="cls-5" d="M176.44,14.63c0,3-1.67,6-5.26,6s-5.27-3-5.27-6,1.67-6,5.27-6S176.44,11.66,176.44,14.63Zm-5.26-4.75c-2.73,0-3.81,2.66-3.81,4.75s1.08,4.74,3.81,4.74,3.8-2.65,3.8-4.74S173.9,9.88,171.18,9.88Z" transform="translate(-1.55 -0.02)"/><path class="cls-5" d="M180,20.58h-1.35V11.43c0-.88-.07-1.78-.11-2.54h1.39l.07,1.66,0,0a3.88,3.88,0,0,1,3.53-2c3.69,0,4,3.26,4,4.57v7.46h-1.34V12.89a2.79,2.79,0,0,0-3-3.1c-2.23,0-3.24,1.86-3.24,3.89Z" transform="translate(-1.55 -0.02)"/><path class="cls-5" d="M191,20.68h-1.35V11.52c0-.87-.06-1.77-.11-2.54h1.39l.07,1.67.05,0a3.88,3.88,0,0,1,3.53-2c3.69,0,4,3.26,4,4.56v7.47h-1.35V13a2.79,2.79,0,0,0-3-3.11c-2.23,0-3.24,1.87-3.24,3.89Z" transform="translate(-1.55 -0.02)"/><path class="cls-5" d="M202,14.94c0,2.41,1.14,4.43,3.91,4.43a3.35,3.35,0,0,0,3.26-2.7h1.42a4.75,4.75,0,0,1-5.11,3.94c-3.37,0-4.94-2.9-4.94-6s1.68-6,5-6c3.78,0,5.15,2.76,5.15,6.29Zm7.26-1.23c-.16-2.19-1.33-3.83-3.66-3.83s-3.38,1.85-3.56,3.83Z" transform="translate(-1.55 -0.02)"/><path class="cls-5" d="M220.56,12.45c-.11-1.74-1.22-2.57-3.08-2.57-2.07,0-3.35,2.16-3.35,4.73s1.28,4.76,3.35,4.76a2.85,2.85,0,0,0,3.08-2.63H222c-.36,2.59-1.84,3.87-4.41,3.87-3.37,0-5-2.9-5-6s1.69-6,5-6c2.32,0,4.21,1.39,4.32,3.8Z" transform="translate(-1.55 -0.02)"/><path class="cls-5" d="M226.21,10.22H224V9h2.25V6.58L227.56,6V9h2.57v1.24h-2.57v7.56a1.39,1.39,0,0,0,1.55,1.59,4,4,0,0,0,1.17-.13v1.17a5.67,5.67,0,0,1-1.37.2c-2.85,0-2.7-1.82-2.7-3.35Z" transform="translate(-1.55 -0.02)"/></svg>